<svg width="36" height="36" viewBox="0 0 36 36" fill="none" xmlns="http://www.w3.org/2000/svg">
<path d="M18.0001 3C11.7871 3 6.75005 8.037 6.75005 14.25V20.6145L4.64705 25.3815C4.53377 25.6383 4.48635 25.9194 4.50908 26.1992C4.53182 26.479 4.62399 26.7487 4.77725 26.9838C4.93051 27.219 5.14002 27.4122 5.3868 27.546C5.63359 27.6798 5.90984 27.7499 6.19055 27.75H29.8096C30.0903 27.7499 30.3665 27.6798 30.6133 27.546C30.8601 27.4122 31.0696 27.219 31.2229 26.9838C31.3761 26.7487 31.4683 26.479 31.491 26.1992C31.5138 25.9194 31.4663 25.6383 31.3531 25.3815L29.2501 20.6152V14.25C29.2501 8.037 24.2131 3 18.0001 3ZM18.0001 33C16.9366 32.9999 15.9075 32.6232 15.0952 31.9368C14.2829 31.2504 13.7398 30.2986 13.5623 29.25H22.4378C22.2603 30.2986 21.7172 31.2504 20.9049 31.9368C20.0926 32.6232 19.0635 32.9999 18.0001 33Z" fill="#1B5CED"/>
</svg>
