<svg class="svg-icon" style="width: 20px; height: 20px;vertical-align: middle;fill: currentColor;overflow: hidden;" viewBox="0 0 1024 1024" version="1.1" xmlns="http://www.w3.org/2000/svg"><path d="M207.999974 447.999125H48.000286c-26.509948 0-47.999906 21.489958-47.999906 47.999906v479.999063c0 26.509948 21.489958 47.999906 47.999906 47.999906h159.999688c26.509948 0 47.999906-21.489958 47.999906-47.999906V495.999031c0-26.509948-21.489958-47.999906-47.999906-47.999906zM128.00013 943.998156c-26.509948 0-47.999906-21.489958-47.999906-47.999906s21.489958-47.999906 47.999906-47.999906 47.999906 21.489958 47.999906 47.999906-21.489958 47.999906-47.999906 47.999906zM767.99888 162.903682c0 84.831834-51.939899 132.415741-66.55387 189.095631h203.445603c66.79387 0 118.793768 55.491892 119.105767 116.195773 0.168 35.87593-15.091971 74.497854-38.877924 98.393807l-0.22 0.22c19.671962 46.673909 16.473968 112.073781-18.615963 158.93769 17.361966 51.789899-0.138 115.407775-32.763936 149.513708 8.595983 35.195931 4.487991 65.149873-12.295976 89.263825C880.40266 1023.172002 779.230858 1023.998 693.677025 1023.998l-5.689989-0.002c-96.573811-0.034-175.611657-35.195931-239.119533-63.449876-31.913938-14.197972-73.641856-31.773938-105.301794-32.355937-13.079974-0.24-23.565954-10.913979-23.565954-23.995953v-427.539165c0-6.399988 2.563995-12.541976 7.115986-17.041967 79.227845-78.287847 113.295779-161.173685 178.233652-226.221558 29.607942-29.663942 40.375921-74.471855 50.785901-117.80377C565.029276 78.585847 583.63324 0 623.999161 0c47.999906 0 143.999719 15.999969 143.999719 162.903682z" fill="#1B5CED" /></svg>