<svg width="36" height="36" viewBox="0 0 36 36" fill="none" xmlns="http://www.w3.org/2000/svg">
<path d="M18 3C11.787 3 6.74999 8.037 6.74999 14.25V20.6145L4.64699 25.3815C4.53371 25.6383 4.48629 25.9194 4.50902 26.1992C4.53176 26.479 4.62393 26.7487 4.77719 26.9838C4.93045 27.219 5.13996 27.4122 5.38674 27.546C5.63352 27.6798 5.90978 27.7499 6.19049 27.75H29.8095C30.0902 27.7499 30.3665 27.6798 30.6132 27.546C30.86 27.4122 31.0695 27.219 31.2228 26.9838C31.3761 26.7487 31.4682 26.479 31.491 26.1992C31.5137 25.9194 31.4663 25.6383 31.353 25.3815L29.25 20.6152V14.25C29.25 8.037 24.213 3 18 3ZM18 33C16.9365 32.9999 15.9074 32.6232 15.0951 31.9368C14.2828 31.2504 13.7398 30.2986 13.5622 29.25H22.4377C22.2602 30.2986 21.7172 31.2504 20.9049 31.9368C20.0926 32.6232 19.0635 32.9999 18 33Z" fill="#1B5CED"/>
</svg>
