<svg width="20" height="20" viewBox="0 0 20 20" fill="none" xmlns="http://www.w3.org/2000/svg">
<path d="M6.66667 7.91666C6.3904 7.91666 6.12545 8.0264 5.9301 8.22175C5.73475 8.4171 5.625 8.68206 5.625 8.95832C5.625 9.23459 5.73475 9.49954 5.9301 9.69489C6.12545 9.89024 6.3904 9.99999 6.66667 9.99999C6.94293 9.99999 7.20789 9.89024 7.40324 9.69489C7.59859 9.49954 7.70833 9.23459 7.70833 8.95832C7.70833 8.68206 7.59859 8.4171 7.40324 8.22175C7.20789 8.0264 6.94293 7.91666 6.66667 7.91666ZM10 7.91666C9.72373 7.91666 9.45878 8.0264 9.26343 8.22175C9.06808 8.4171 8.95833 8.68206 8.95833 8.95832C8.95833 9.23459 9.06808 9.49954 9.26343 9.69489C9.45878 9.89024 9.72373 9.99999 10 9.99999C10.2763 9.99999 10.5412 9.89024 10.7366 9.69489C10.9319 9.49954 11.0417 9.23459 11.0417 8.95832C11.0417 8.68206 10.9319 8.4171 10.7366 8.22175C10.5412 8.0264 10.2763 7.91666 10 7.91666ZM12.2917 8.95832C12.2917 8.68206 12.4014 8.4171 12.5968 8.22175C12.7921 8.0264 13.0571 7.91666 13.3333 7.91666C13.6096 7.91666 13.8746 8.0264 14.0699 8.22175C14.2653 8.4171 14.375 8.68206 14.375 8.95832C14.375 9.23459 14.2653 9.49954 14.0699 9.69489C13.8746 9.89024 13.6096 9.99999 13.3333 9.99999C13.0571 9.99999 12.7921 9.89024 12.5968 9.69489C12.4014 9.49954 12.2917 9.23459 12.2917 8.95832Z" fill="black"/>
<path fill-rule="evenodd" clip-rule="evenodd" d="M13.4166 3.82751C11.1716 3.63604 8.91497 3.6249 6.66825 3.79418L6.50742 3.80668C5.47442 3.88463 4.50901 4.34996 3.80452 5.10946C3.10003 5.86897 2.70847 6.86658 2.70825 7.90251V15C2.70835 15.1081 2.73645 15.2142 2.78982 15.3082C2.84319 15.4021 2.92 15.4806 3.01276 15.536C3.10552 15.5914 3.21106 15.6218 3.31908 15.6243C3.4271 15.6267 3.53391 15.6012 3.62909 15.55L6.88742 13.7992C7.03932 13.7175 7.20912 13.6749 7.38159 13.675H14.8616C15.8049 13.675 16.6133 13 16.7824 12.0725C17.1258 10.1917 17.1524 8.26668 16.8624 6.37668L16.7774 5.81918C16.7018 5.32652 16.4627 4.87359 16.0986 4.53322C15.7345 4.19284 15.2665 3.98479 14.7699 3.94251L13.4166 3.82751ZM6.76325 5.04084C8.94337 4.87635 11.1332 4.88694 13.3116 5.07251L14.6649 5.18834C15.1116 5.22668 15.4749 5.56584 15.5424 6.00918L15.6283 6.56584C15.8967 8.31863 15.8713 10.1039 15.5533 11.8483C15.5238 12.0101 15.4385 12.1564 15.3123 12.2618C15.1861 12.3672 15.0269 12.4249 14.8624 12.425H7.38159C7.00289 12.4251 6.63011 12.519 6.29659 12.6983L3.95825 13.955V7.90168C3.9583 7.18099 4.23058 6.48692 4.72058 5.95845C5.21058 5.42997 5.88212 5.1061 6.60075 5.05168L6.76242 5.04001L6.76325 5.04084Z" fill="black"/>
</svg>
