<svg width="16" height="16" viewBox="0 0 16 16" fill="none" xmlns="http://www.w3.org/2000/svg">
<path d="M8.00016 1.33333C4.3135 1.33333 1.3335 4.31333 1.3335 8C1.3335 11.6867 4.3135 14.6667 8.00016 14.6667C11.6868 14.6667 14.6668 11.6867 14.6668 8C14.6668 4.31333 11.6868 1.33333 8.00016 1.33333ZM8.00016 13.3333C5.06016 13.3333 2.66683 10.94 2.66683 8C2.66683 5.06 5.06016 2.66666 8.00016 2.66666C10.9402 2.66666 13.3335 5.06 13.3335 8C13.3335 10.94 10.9402 13.3333 8.00016 13.3333ZM10.3935 4.66666L8.00016 7.06L5.60683 4.66666L4.66683 5.60666L7.06016 8L4.66683 10.3933L5.60683 11.3333L8.00016 8.94L10.3935 11.3333L11.3335 10.3933L8.94016 8L11.3335 5.60666L10.3935 4.66666Z" fill="#6B6B6B"/>
</svg>
